<?xml version="1.0" encoding="utf-8" standalone="no"?>
<!DOCTYPE svg PUBLIC "-//W3C//DTD SVG 1.1//EN"
  "http://www.w3.org/Graphics/SVG/1.1/DTD/svg11.dtd">
<svg xmlns:xlink="http://www.w3.org/1999/xlink" width="460.8pt" height="345.6pt" viewBox="0 0 460.8 345.6" xmlns="http://www.w3.org/2000/svg" version="1.1">
 <metadata>
  <rdf:RDF xmlns:dc="http://purl.org/dc/elements/1.1/" xmlns:cc="http://creativecommons.org/ns#" xmlns:rdf="http://www.w3.org/1999/02/22-rdf-syntax-ns#">
   <cc:Work>
    <dc:type rdf:resource="http://purl.org/dc/dcmitype/StillImage"/>
    <dc:date>2024-09-13T19:53:27.781900</dc:date>
    <dc:format>image/svg+xml</dc:format>
    <dc:creator>
     <cc:Agent>
      <dc:title>Matplotlib v3.7.2, https://matplotlib.org/</dc:title>
     </cc:Agent>
    </dc:creator>
   </cc:Work>
  </rdf:RDF>
 </metadata>
 <defs>
  <style type="text/css">*{stroke-linejoin: round; stroke-linecap: butt}</style>
 </defs>
 <g id="figure_1">
  <g id="patch_1">
   <path d="M 0 345.6 
L 460.8 345.6 
L 460.8 0 
L 0 0 
z
" style="fill: #ffffff"/>
  </g>
  <g id="axes_1">
   <g id="patch_2">
    <path d="M 57.6 307.584 
L 414.72 307.584 
L 414.72 41.472 
L 57.6 41.472 
z
" style="fill: #ffffff"/>
   </g>
   <g id="patch_3">
    <path d="M 66.528 180.894316 
L 137.952 180.894316 
L 137.952 53.568 
L 66.528 53.568 
z
" clip-path="url(#p05fcdaf93d)" style="fill: #008000; opacity: 0.2; stroke: #008000; stroke-linejoin: miter"/>
   </g>
   <g id="patch_4">
    <path d="M 155.808 253.045895 
L 227.232 253.045895 
L 227.232 244.557474 
L 155.808 244.557474 
z
" clip-path="url(#p05fcdaf93d)" style="fill: #008000; opacity: 0.2; stroke: #008000; stroke-linejoin: miter"/>
   </g>
   <g id="patch_5">
    <path d="M 245.088 233.946947 
L 316.512 233.946947 
L 316.512 208.481684 
L 245.088 208.481684 
z
" clip-path="url(#p05fcdaf93d)" style="fill: #008000; opacity: 0.2; stroke: #008000; stroke-linejoin: miter"/>
   </g>
   <g id="patch_6">
    <path d="M 334.368 295.488 
L 405.792 295.488 
L 405.792 282.755368 
L 334.368 282.755368 
z
" clip-path="url(#p05fcdaf93d)" style="fill: #008000; opacity: 0.2; stroke: #008000; stroke-linejoin: miter"/>
   </g>
   <g id="matplotlib.axis_1">
    <g id="xtick_1">
     <g id="line2d_1">
      <defs>
       <path id="m063fcbbc59" d="M 0 0 
L 0 3.5 
" style="stroke: #000000; stroke-width: 0.8"/>
      </defs>
      <g>
       <use xlink:href="#m063fcbbc59" x="102.24" y="307.584" style="stroke: #000000; stroke-width: 0.8"/>
      </g>
     </g>
     <g id="text_1">
      <!-- RR interval -->
      <g transform="translate(74.64 322.182437) scale(0.1 -0.1)">
       <defs>
        <path id="DejaVuSans-52" d="M 2841 2188 
Q 3044 2119 3236 1894 
Q 3428 1669 3622 1275 
L 4263 0 
L 3584 0 
L 2988 1197 
Q 2756 1666 2539 1819 
Q 2322 1972 1947 1972 
L 1259 1972 
L 1259 0 
L 628 0 
L 628 4666 
L 2053 4666 
Q 2853 4666 3247 4331 
Q 3641 3997 3641 3322 
Q 3641 2881 3436 2590 
Q 3231 2300 2841 2188 
z
M 1259 4147 
L 1259 2491 
L 2053 2491 
Q 2509 2491 2742 2702 
Q 2975 2913 2975 3322 
Q 2975 3731 2742 3939 
Q 2509 4147 2053 4147 
L 1259 4147 
z
" transform="scale(0.015625)"/>
        <path id="DejaVuSans-20" transform="scale(0.015625)"/>
        <path id="DejaVuSans-69" d="M 603 3500 
L 1178 3500 
L 1178 0 
L 603 0 
L 603 3500 
z
M 603 4863 
L 1178 4863 
L 1178 4134 
L 603 4134 
L 603 4863 
z
" transform="scale(0.015625)"/>
        <path id="DejaVuSans-6e" d="M 3513 2113 
L 3513 0 
L 2938 0 
L 2938 2094 
Q 2938 2591 2744 2837 
Q 2550 3084 2163 3084 
Q 1697 3084 1428 2787 
Q 1159 2491 1159 1978 
L 1159 0 
L 581 0 
L 581 3500 
L 1159 3500 
L 1159 2956 
Q 1366 3272 1645 3428 
Q 1925 3584 2291 3584 
Q 2894 3584 3203 3211 
Q 3513 2838 3513 2113 
z
" transform="scale(0.015625)"/>
        <path id="DejaVuSans-74" d="M 1172 4494 
L 1172 3500 
L 2356 3500 
L 2356 3053 
L 1172 3053 
L 1172 1153 
Q 1172 725 1289 603 
Q 1406 481 1766 481 
L 2356 481 
L 2356 0 
L 1766 0 
Q 1100 0 847 248 
Q 594 497 594 1153 
L 594 3053 
L 172 3053 
L 172 3500 
L 594 3500 
L 594 4494 
L 1172 4494 
z
" transform="scale(0.015625)"/>
        <path id="DejaVuSans-65" d="M 3597 1894 
L 3597 1613 
L 953 1613 
Q 991 1019 1311 708 
Q 1631 397 2203 397 
Q 2534 397 2845 478 
Q 3156 559 3463 722 
L 3463 178 
Q 3153 47 2828 -22 
Q 2503 -91 2169 -91 
Q 1331 -91 842 396 
Q 353 884 353 1716 
Q 353 2575 817 3079 
Q 1281 3584 2069 3584 
Q 2775 3584 3186 3129 
Q 3597 2675 3597 1894 
z
M 3022 2063 
Q 3016 2534 2758 2815 
Q 2500 3097 2075 3097 
Q 1594 3097 1305 2825 
Q 1016 2553 972 2059 
L 3022 2063 
z
" transform="scale(0.015625)"/>
        <path id="DejaVuSans-72" d="M 2631 2963 
Q 2534 3019 2420 3045 
Q 2306 3072 2169 3072 
Q 1681 3072 1420 2755 
Q 1159 2438 1159 1844 
L 1159 0 
L 581 0 
L 581 3500 
L 1159 3500 
L 1159 2956 
Q 1341 3275 1631 3429 
Q 1922 3584 2338 3584 
Q 2397 3584 2469 3576 
Q 2541 3569 2628 3553 
L 2631 2963 
z
" transform="scale(0.015625)"/>
        <path id="DejaVuSans-76" d="M 191 3500 
L 800 3500 
L 1894 563 
L 2988 3500 
L 3597 3500 
L 2284 0 
L 1503 0 
L 191 3500 
z
" transform="scale(0.015625)"/>
        <path id="DejaVuSans-61" d="M 2194 1759 
Q 1497 1759 1228 1600 
Q 959 1441 959 1056 
Q 959 750 1161 570 
Q 1363 391 1709 391 
Q 2188 391 2477 730 
Q 2766 1069 2766 1631 
L 2766 1759 
L 2194 1759 
z
M 3341 1997 
L 3341 0 
L 2766 0 
L 2766 531 
Q 2569 213 2275 61 
Q 1981 -91 1556 -91 
Q 1019 -91 701 211 
Q 384 513 384 1019 
Q 384 1609 779 1909 
Q 1175 2209 1959 2209 
L 2766 2209 
L 2766 2266 
Q 2766 2663 2505 2880 
Q 2244 3097 1772 3097 
Q 1472 3097 1187 3025 
Q 903 2953 641 2809 
L 641 3341 
Q 956 3463 1253 3523 
Q 1550 3584 1831 3584 
Q 2591 3584 2966 3190 
Q 3341 2797 3341 1997 
z
" transform="scale(0.015625)"/>
        <path id="DejaVuSans-6c" d="M 603 4863 
L 1178 4863 
L 1178 0 
L 603 0 
L 603 4863 
z
" transform="scale(0.015625)"/>
       </defs>
       <use xlink:href="#DejaVuSans-52"/>
       <use xlink:href="#DejaVuSans-52" x="69.482422"/>
       <use xlink:href="#DejaVuSans-20" x="138.964844"/>
       <use xlink:href="#DejaVuSans-69" x="170.751953"/>
       <use xlink:href="#DejaVuSans-6e" x="198.535156"/>
       <use xlink:href="#DejaVuSans-74" x="261.914062"/>
       <use xlink:href="#DejaVuSans-65" x="301.123047"/>
       <use xlink:href="#DejaVuSans-72" x="362.646484"/>
       <use xlink:href="#DejaVuSans-76" x="403.759766"/>
       <use xlink:href="#DejaVuSans-61" x="462.939453"/>
       <use xlink:href="#DejaVuSans-6c" x="524.21875"/>
      </g>
     </g>
    </g>
    <g id="xtick_2">
     <g id="line2d_2">
      <g>
       <use xlink:href="#m063fcbbc59" x="191.52" y="307.584" style="stroke: #000000; stroke-width: 0.8"/>
      </g>
     </g>
     <g id="text_2">
      <!-- ST interval -->
      <g transform="translate(164.640312 322.182437) scale(0.1 -0.1)">
       <defs>
        <path id="DejaVuSans-53" d="M 3425 4513 
L 3425 3897 
Q 3066 4069 2747 4153 
Q 2428 4238 2131 4238 
Q 1616 4238 1336 4038 
Q 1056 3838 1056 3469 
Q 1056 3159 1242 3001 
Q 1428 2844 1947 2747 
L 2328 2669 
Q 3034 2534 3370 2195 
Q 3706 1856 3706 1288 
Q 3706 609 3251 259 
Q 2797 -91 1919 -91 
Q 1588 -91 1214 -16 
Q 841 59 441 206 
L 441 856 
Q 825 641 1194 531 
Q 1563 422 1919 422 
Q 2459 422 2753 634 
Q 3047 847 3047 1241 
Q 3047 1584 2836 1778 
Q 2625 1972 2144 2069 
L 1759 2144 
Q 1053 2284 737 2584 
Q 422 2884 422 3419 
Q 422 4038 858 4394 
Q 1294 4750 2059 4750 
Q 2388 4750 2728 4690 
Q 3069 4631 3425 4513 
z
" transform="scale(0.015625)"/>
        <path id="DejaVuSans-54" d="M -19 4666 
L 3928 4666 
L 3928 4134 
L 2272 4134 
L 2272 0 
L 1638 0 
L 1638 4134 
L -19 4134 
L -19 4666 
z
" transform="scale(0.015625)"/>
       </defs>
       <use xlink:href="#DejaVuSans-53"/>
       <use xlink:href="#DejaVuSans-54" x="63.476562"/>
       <use xlink:href="#DejaVuSans-20" x="124.560547"/>
       <use xlink:href="#DejaVuSans-69" x="156.347656"/>
       <use xlink:href="#DejaVuSans-6e" x="184.130859"/>
       <use xlink:href="#DejaVuSans-74" x="247.509766"/>
       <use xlink:href="#DejaVuSans-65" x="286.71875"/>
       <use xlink:href="#DejaVuSans-72" x="348.242188"/>
       <use xlink:href="#DejaVuSans-76" x="389.355469"/>
       <use xlink:href="#DejaVuSans-61" x="448.535156"/>
       <use xlink:href="#DejaVuSans-6c" x="509.814453"/>
      </g>
     </g>
    </g>
    <g id="xtick_3">
     <g id="line2d_3">
      <g>
       <use xlink:href="#m063fcbbc59" x="280.8" y="307.584" style="stroke: #000000; stroke-width: 0.8"/>
      </g>
     </g>
     <g id="text_3">
      <!-- QT interval -->
      <g transform="translate(253.158594 322.182437) scale(0.1 -0.1)">
       <defs>
        <path id="DejaVuSans-51" d="M 2522 4238 
Q 1834 4238 1429 3725 
Q 1025 3213 1025 2328 
Q 1025 1447 1429 934 
Q 1834 422 2522 422 
Q 3209 422 3611 934 
Q 4013 1447 4013 2328 
Q 4013 3213 3611 3725 
Q 3209 4238 2522 4238 
z
M 3406 84 
L 4238 -825 
L 3475 -825 
L 2784 -78 
Q 2681 -84 2626 -87 
Q 2572 -91 2522 -91 
Q 1538 -91 948 567 
Q 359 1225 359 2328 
Q 359 3434 948 4092 
Q 1538 4750 2522 4750 
Q 3503 4750 4090 4092 
Q 4678 3434 4678 2328 
Q 4678 1516 4351 937 
Q 4025 359 3406 84 
z
" transform="scale(0.015625)"/>
       </defs>
       <use xlink:href="#DejaVuSans-51"/>
       <use xlink:href="#DejaVuSans-54" x="78.710938"/>
       <use xlink:href="#DejaVuSans-20" x="139.794922"/>
       <use xlink:href="#DejaVuSans-69" x="171.582031"/>
       <use xlink:href="#DejaVuSans-6e" x="199.365234"/>
       <use xlink:href="#DejaVuSans-74" x="262.744141"/>
       <use xlink:href="#DejaVuSans-65" x="301.953125"/>
       <use xlink:href="#DejaVuSans-72" x="363.476562"/>
       <use xlink:href="#DejaVuSans-76" x="404.589844"/>
       <use xlink:href="#DejaVuSans-61" x="463.769531"/>
       <use xlink:href="#DejaVuSans-6c" x="525.048828"/>
      </g>
     </g>
    </g>
    <g id="xtick_4">
     <g id="line2d_4">
      <g>
       <use xlink:href="#m063fcbbc59" x="370.08" y="307.584" style="stroke: #000000; stroke-width: 0.8"/>
      </g>
     </g>
     <g id="text_4">
      <!-- QRS interval -->
      <g transform="translate(338.844063 322.182437) scale(0.1 -0.1)">
       <use xlink:href="#DejaVuSans-51"/>
       <use xlink:href="#DejaVuSans-52" x="78.710938"/>
       <use xlink:href="#DejaVuSans-53" x="148.193359"/>
       <use xlink:href="#DejaVuSans-20" x="211.669922"/>
       <use xlink:href="#DejaVuSans-69" x="243.457031"/>
       <use xlink:href="#DejaVuSans-6e" x="271.240234"/>
       <use xlink:href="#DejaVuSans-74" x="334.619141"/>
       <use xlink:href="#DejaVuSans-65" x="373.828125"/>
       <use xlink:href="#DejaVuSans-72" x="435.351562"/>
       <use xlink:href="#DejaVuSans-76" x="476.464844"/>
       <use xlink:href="#DejaVuSans-61" x="535.644531"/>
       <use xlink:href="#DejaVuSans-6c" x="596.923828"/>
      </g>
     </g>
    </g>
   </g>
   <g id="matplotlib.axis_2">
    <g id="ytick_1">
     <g id="line2d_5">
      <defs>
       <path id="ma45bb6d797" d="M 0 0 
L -3.5 0 
" style="stroke: #000000; stroke-width: 0.8"/>
      </defs>
      <g>
       <use xlink:href="#ma45bb6d797" x="57.6" y="265.778526" style="stroke: #000000; stroke-width: 0.8"/>
      </g>
     </g>
     <g id="text_5">
      <!-- 0.2 -->
      <g transform="translate(34.696875 269.577745) scale(0.1 -0.1)">
       <defs>
        <path id="DejaVuSans-30" d="M 2034 4250 
Q 1547 4250 1301 3770 
Q 1056 3291 1056 2328 
Q 1056 1369 1301 889 
Q 1547 409 2034 409 
Q 2525 409 2770 889 
Q 3016 1369 3016 2328 
Q 3016 3291 2770 3770 
Q 2525 4250 2034 4250 
z
M 2034 4750 
Q 2819 4750 3233 4129 
Q 3647 3509 3647 2328 
Q 3647 1150 3233 529 
Q 2819 -91 2034 -91 
Q 1250 -91 836 529 
Q 422 1150 422 2328 
Q 422 3509 836 4129 
Q 1250 4750 2034 4750 
z
" transform="scale(0.015625)"/>
        <path id="DejaVuSans-2e" d="M 684 794 
L 1344 794 
L 1344 0 
L 684 0 
L 684 794 
z
" transform="scale(0.015625)"/>
        <path id="DejaVuSans-32" d="M 1228 531 
L 3431 531 
L 3431 0 
L 469 0 
L 469 531 
Q 828 903 1448 1529 
Q 2069 2156 2228 2338 
Q 2531 2678 2651 2914 
Q 2772 3150 2772 3378 
Q 2772 3750 2511 3984 
Q 2250 4219 1831 4219 
Q 1534 4219 1204 4116 
Q 875 4013 500 3803 
L 500 4441 
Q 881 4594 1212 4672 
Q 1544 4750 1819 4750 
Q 2544 4750 2975 4387 
Q 3406 4025 3406 3419 
Q 3406 3131 3298 2873 
Q 3191 2616 2906 2266 
Q 2828 2175 2409 1742 
Q 1991 1309 1228 531 
z
" transform="scale(0.015625)"/>
       </defs>
       <use xlink:href="#DejaVuSans-30"/>
       <use xlink:href="#DejaVuSans-2e" x="63.623047"/>
       <use xlink:href="#DejaVuSans-32" x="95.410156"/>
      </g>
     </g>
    </g>
    <g id="ytick_2">
     <g id="line2d_6">
      <g>
       <use xlink:href="#ma45bb6d797" x="57.6" y="223.336421" style="stroke: #000000; stroke-width: 0.8"/>
      </g>
     </g>
     <g id="text_6">
      <!-- 0.4 -->
      <g transform="translate(34.696875 227.13564) scale(0.1 -0.1)">
       <defs>
        <path id="DejaVuSans-34" d="M 2419 4116 
L 825 1625 
L 2419 1625 
L 2419 4116 
z
M 2253 4666 
L 3047 4666 
L 3047 1625 
L 3713 1625 
L 3713 1100 
L 3047 1100 
L 3047 0 
L 2419 0 
L 2419 1100 
L 313 1100 
L 313 1709 
L 2253 4666 
z
" transform="scale(0.015625)"/>
       </defs>
       <use xlink:href="#DejaVuSans-30"/>
       <use xlink:href="#DejaVuSans-2e" x="63.623047"/>
       <use xlink:href="#DejaVuSans-34" x="95.410156"/>
      </g>
     </g>
    </g>
    <g id="ytick_3">
     <g id="line2d_7">
      <g>
       <use xlink:href="#ma45bb6d797" x="57.6" y="180.894316" style="stroke: #000000; stroke-width: 0.8"/>
      </g>
     </g>
     <g id="text_7">
      <!-- 0.6 -->
      <g transform="translate(34.696875 184.693535) scale(0.1 -0.1)">
       <defs>
        <path id="DejaVuSans-36" d="M 2113 2584 
Q 1688 2584 1439 2293 
Q 1191 2003 1191 1497 
Q 1191 994 1439 701 
Q 1688 409 2113 409 
Q 2538 409 2786 701 
Q 3034 994 3034 1497 
Q 3034 2003 2786 2293 
Q 2538 2584 2113 2584 
z
M 3366 4563 
L 3366 3988 
Q 3128 4100 2886 4159 
Q 2644 4219 2406 4219 
Q 1781 4219 1451 3797 
Q 1122 3375 1075 2522 
Q 1259 2794 1537 2939 
Q 1816 3084 2150 3084 
Q 2853 3084 3261 2657 
Q 3669 2231 3669 1497 
Q 3669 778 3244 343 
Q 2819 -91 2113 -91 
Q 1303 -91 875 529 
Q 447 1150 447 2328 
Q 447 3434 972 4092 
Q 1497 4750 2381 4750 
Q 2619 4750 2861 4703 
Q 3103 4656 3366 4563 
z
" transform="scale(0.015625)"/>
       </defs>
       <use xlink:href="#DejaVuSans-30"/>
       <use xlink:href="#DejaVuSans-2e" x="63.623047"/>
       <use xlink:href="#DejaVuSans-36" x="95.410156"/>
      </g>
     </g>
    </g>
    <g id="ytick_4">
     <g id="line2d_8">
      <g>
       <use xlink:href="#ma45bb6d797" x="57.6" y="138.452211" style="stroke: #000000; stroke-width: 0.8"/>
      </g>
     </g>
     <g id="text_8">
      <!-- 0.8 -->
      <g transform="translate(34.696875 142.251429) scale(0.1 -0.1)">
       <defs>
        <path id="DejaVuSans-38" d="M 2034 2216 
Q 1584 2216 1326 1975 
Q 1069 1734 1069 1313 
Q 1069 891 1326 650 
Q 1584 409 2034 409 
Q 2484 409 2743 651 
Q 3003 894 3003 1313 
Q 3003 1734 2745 1975 
Q 2488 2216 2034 2216 
z
M 1403 2484 
Q 997 2584 770 2862 
Q 544 3141 544 3541 
Q 544 4100 942 4425 
Q 1341 4750 2034 4750 
Q 2731 4750 3128 4425 
Q 3525 4100 3525 3541 
Q 3525 3141 3298 2862 
Q 3072 2584 2669 2484 
Q 3125 2378 3379 2068 
Q 3634 1759 3634 1313 
Q 3634 634 3220 271 
Q 2806 -91 2034 -91 
Q 1263 -91 848 271 
Q 434 634 434 1313 
Q 434 1759 690 2068 
Q 947 2378 1403 2484 
z
M 1172 3481 
Q 1172 3119 1398 2916 
Q 1625 2713 2034 2713 
Q 2441 2713 2670 2916 
Q 2900 3119 2900 3481 
Q 2900 3844 2670 4047 
Q 2441 4250 2034 4250 
Q 1625 4250 1398 4047 
Q 1172 3844 1172 3481 
z
" transform="scale(0.015625)"/>
       </defs>
       <use xlink:href="#DejaVuSans-30"/>
       <use xlink:href="#DejaVuSans-2e" x="63.623047"/>
       <use xlink:href="#DejaVuSans-38" x="95.410156"/>
      </g>
     </g>
    </g>
    <g id="ytick_5">
     <g id="line2d_9">
      <g>
       <use xlink:href="#ma45bb6d797" x="57.6" y="96.010105" style="stroke: #000000; stroke-width: 0.8"/>
      </g>
     </g>
     <g id="text_9">
      <!-- 1.0 -->
      <g transform="translate(34.696875 99.809324) scale(0.1 -0.1)">
       <defs>
        <path id="DejaVuSans-31" d="M 794 531 
L 1825 531 
L 1825 4091 
L 703 3866 
L 703 4441 
L 1819 4666 
L 2450 4666 
L 2450 531 
L 3481 531 
L 3481 0 
L 794 0 
L 794 531 
z
" transform="scale(0.015625)"/>
       </defs>
       <use xlink:href="#DejaVuSans-31"/>
       <use xlink:href="#DejaVuSans-2e" x="63.623047"/>
       <use xlink:href="#DejaVuSans-30" x="95.410156"/>
      </g>
     </g>
    </g>
    <g id="ytick_6">
     <g id="line2d_10">
      <g>
       <use xlink:href="#ma45bb6d797" x="57.6" y="53.568" style="stroke: #000000; stroke-width: 0.8"/>
      </g>
     </g>
     <g id="text_10">
      <!-- 1.2 -->
      <g transform="translate(34.696875 57.367219) scale(0.1 -0.1)">
       <use xlink:href="#DejaVuSans-31"/>
       <use xlink:href="#DejaVuSans-2e" x="63.623047"/>
       <use xlink:href="#DejaVuSans-32" x="95.410156"/>
      </g>
     </g>
    </g>
    <g id="text_11">
     <!-- s -->
     <g transform="translate(28.617188 177.132688) rotate(-90) scale(0.1 -0.1)">
      <defs>
       <path id="DejaVuSans-73" d="M 2834 3397 
L 2834 2853 
Q 2591 2978 2328 3040 
Q 2066 3103 1784 3103 
Q 1356 3103 1142 2972 
Q 928 2841 928 2578 
Q 928 2378 1081 2264 
Q 1234 2150 1697 2047 
L 1894 2003 
Q 2506 1872 2764 1633 
Q 3022 1394 3022 966 
Q 3022 478 2636 193 
Q 2250 -91 1575 -91 
Q 1294 -91 989 -36 
Q 684 19 347 128 
L 347 722 
Q 666 556 975 473 
Q 1284 391 1588 391 
Q 1994 391 2212 530 
Q 2431 669 2431 922 
Q 2431 1156 2273 1281 
Q 2116 1406 1581 1522 
L 1381 1569 
Q 847 1681 609 1914 
Q 372 2147 372 2553 
Q 372 3047 722 3315 
Q 1072 3584 1716 3584 
Q 2034 3584 2315 3537 
Q 2597 3491 2834 3397 
z
" transform="scale(0.015625)"/>
      </defs>
      <use xlink:href="#DejaVuSans-73"/>
     </g>
    </g>
   </g>
   <g id="patch_7">
    <path d="M 57.6 307.584 
L 57.6 41.472 
" style="fill: none; stroke: #000000; stroke-width: 0.8; stroke-linejoin: miter; stroke-linecap: square"/>
   </g>
   <g id="patch_8">
    <path d="M 414.72 307.584 
L 414.72 41.472 
" style="fill: none; stroke: #000000; stroke-width: 0.8; stroke-linejoin: miter; stroke-linecap: square"/>
   </g>
   <g id="patch_9">
    <path d="M 57.6 307.584 
L 414.72 307.584 
" style="fill: none; stroke: #000000; stroke-width: 0.8; stroke-linejoin: miter; stroke-linecap: square"/>
   </g>
   <g id="patch_10">
    <path d="M 57.6 41.472 
L 414.72 41.472 
" style="fill: none; stroke: #000000; stroke-width: 0.8; stroke-linejoin: miter; stroke-linecap: square"/>
   </g>
   <g id="PathCollection_1">
    <defs>
     <path id="C0_0_ed70c2fd5a" d="M 0 1.5 
C 0.397805 1.5 0.77937 1.341951 1.06066 1.06066 
C 1.341951 0.77937 1.5 0.397805 1.5 -0 
C 1.5 -0.397805 1.341951 -0.77937 1.06066 -1.06066 
C 0.77937 -1.341951 0.397805 -1.5 0 -1.5 
C -0.397805 -1.5 -0.77937 -1.341951 -1.06066 -1.06066 
C -1.341951 -0.77937 -1.5 -0.397805 -1.5 0 
C -1.5 0.397805 -1.341951 0.77937 -1.06066 1.06066 
C -0.77937 1.341951 -0.397805 1.5 0 1.5 
z
"/>
    </defs>
    <g clip-path="url(#p05fcdaf93d)">
     <use xlink:href="#C0_0_ed70c2fd5a" x="97.042558" y="80.674579" style="fill: #1f77b4"/>
    </g>
    <g clip-path="url(#p05fcdaf93d)">
     <use xlink:href="#C0_0_ed70c2fd5a" x="85.872387" y="86.891684" style="fill: #1f77b4"/>
    </g>
    <g clip-path="url(#p05fcdaf93d)">
     <use xlink:href="#C0_0_ed70c2fd5a" x="126.873103" y="89.793" style="fill: #1f77b4"/>
    </g>
    <g clip-path="url(#p05fcdaf93d)">
     <use xlink:href="#C0_0_ed70c2fd5a" x="99.457532" y="94.766684" style="fill: #1f77b4"/>
    </g>
    <g clip-path="url(#p05fcdaf93d)">
     <use xlink:href="#C0_0_ed70c2fd5a" x="93.934168" y="103.885105" style="fill: #1f77b4"/>
    </g>
    <g clip-path="url(#p05fcdaf93d)">
     <use xlink:href="#C0_0_ed70c2fd5a" x="109.467968" y="100.983789" style="fill: #1f77b4"/>
    </g>
    <g clip-path="url(#p05fcdaf93d)">
     <use xlink:href="#C0_0_ed70c2fd5a" x="95.540835" y="137.871947" style="fill: #1f77b4"/>
    </g>
    <g clip-path="url(#p05fcdaf93d)">
     <use xlink:href="#C0_0_ed70c2fd5a" x="85.009445" y="72.385105" style="fill: #1f77b4"/>
    </g>
    <g clip-path="url(#p05fcdaf93d)">
     <use xlink:href="#C0_0_ed70c2fd5a" x="127.973014" y="91.036421" style="fill: #1f77b4"/>
    </g>
    <g clip-path="url(#p05fcdaf93d)">
     <use xlink:href="#C0_0_ed70c2fd5a" x="98.185091" y="92.694316" style="fill: #1f77b4"/>
    </g>
    <g clip-path="url(#p05fcdaf93d)">
     <use xlink:href="#C0_0_ed70c2fd5a" x="126.336672" y="120.878526" style="fill: #1f77b4"/>
    </g>
    <g clip-path="url(#p05fcdaf93d)">
     <use xlink:href="#C0_0_ed70c2fd5a" x="114.272849" y="130.825895" style="fill: #1f77b4"/>
    </g>
    <g clip-path="url(#p05fcdaf93d)">
     <use xlink:href="#C0_0_ed70c2fd5a" x="115.101596" y="74.871947" style="fill: #1f77b4"/>
    </g>
    <g clip-path="url(#p05fcdaf93d)">
     <use xlink:href="#C0_0_ed70c2fd5a" x="107.784787" y="75.286421" style="fill: #1f77b4"/>
    </g>
    <g clip-path="url(#p05fcdaf93d)">
     <use xlink:href="#C0_0_ed70c2fd5a" x="109.196137" y="108.029842" style="fill: #1f77b4"/>
    </g>
    <g clip-path="url(#p05fcdaf93d)">
     <use xlink:href="#C0_0_ed70c2fd5a" x="104.939435" y="119.220632" style="fill: #1f77b4"/>
    </g>
    <g clip-path="url(#p05fcdaf93d)">
     <use xlink:href="#C0_0_ed70c2fd5a" x="81.110517" y="100.983789" style="fill: #1f77b4"/>
    </g>
    <g clip-path="url(#p05fcdaf93d)">
     <use xlink:href="#C0_0_ed70c2fd5a" x="86.927343" y="79.431158" style="fill: #1f77b4"/>
    </g>
    <g clip-path="url(#p05fcdaf93d)">
     <use xlink:href="#C0_0_ed70c2fd5a" x="78.269223" y="81.089053" style="fill: #1f77b4"/>
    </g>
    <g clip-path="url(#p05fcdaf93d)">
     <use xlink:href="#C0_0_ed70c2fd5a" x="90.477348" y="111.760105" style="fill: #1f77b4"/>
    </g>
    <g clip-path="url(#p05fcdaf93d)">
     <use xlink:href="#C0_0_ed70c2fd5a" x="83.55423" y="115.075895" style="fill: #1f77b4"/>
    </g>
    <g clip-path="url(#p05fcdaf93d)">
     <use xlink:href="#C0_0_ed70c2fd5a" x="76.347305" y="89.378526" style="fill: #1f77b4"/>
    </g>
    <g clip-path="url(#p05fcdaf93d)">
     <use xlink:href="#C0_0_ed70c2fd5a" x="109.784081" y="91.450895" style="fill: #1f77b4"/>
    </g>
    <g clip-path="url(#p05fcdaf93d)">
     <use xlink:href="#C0_0_ed70c2fd5a" x="75.888552" y="117.977211" style="fill: #1f77b4"/>
    </g>
    <g clip-path="url(#p05fcdaf93d)">
     <use xlink:href="#C0_0_ed70c2fd5a" x="128.193167" y="129.168" style="fill: #1f77b4"/>
    </g>
    <g clip-path="url(#p05fcdaf93d)">
     <use xlink:href="#C0_0_ed70c2fd5a" x="79.427457" y="110.516684" style="fill: #1f77b4"/>
    </g>
    <g clip-path="url(#p05fcdaf93d)">
     <use xlink:href="#C0_0_ed70c2fd5a" x="126.24255" y="79.016684" style="fill: #1f77b4"/>
    </g>
    <g clip-path="url(#p05fcdaf93d)">
     <use xlink:href="#C0_0_ed70c2fd5a" x="121.225126" y="78.187737" style="fill: #1f77b4"/>
    </g>
   </g>
   <g id="PathCollection_2">
    <defs>
     <path id="C1_0_2234138944" d="M 0 1.5 
C 0.397805 1.5 0.77937 1.341951 1.06066 1.06066 
C 1.341951 0.77937 1.5 0.397805 1.5 -0 
C 1.5 -0.397805 1.341951 -0.77937 1.06066 -1.06066 
C 0.77937 -1.341951 0.397805 -1.5 0 -1.5 
C -0.397805 -1.5 -0.77937 -1.341951 -1.06066 -1.06066 
C -1.341951 -0.77937 -1.5 -0.397805 -1.5 0 
C -1.5 0.397805 -1.341951 0.77937 -1.06066 1.06066 
C -0.77937 1.341951 -0.397805 1.5 0 1.5 
z
"/>
    </defs>
    <g clip-path="url(#p05fcdaf93d)">
     <use xlink:href="#C1_0_2234138944" x="210.017355" y="243.148263" style="fill: #ff7f0e"/>
    </g>
    <g clip-path="url(#p05fcdaf93d)">
     <use xlink:href="#C1_0_2234138944" x="183.757427" y="240.661421" style="fill: #ff7f0e"/>
    </g>
    <g clip-path="url(#p05fcdaf93d)">
     <use xlink:href="#C1_0_2234138944" x="187.125223" y="236.516684" style="fill: #ff7f0e"/>
    </g>
    <g clip-path="url(#p05fcdaf93d)">
     <use xlink:href="#C1_0_2234138944" x="186.612583" y="234.029842" style="fill: #ff7f0e"/>
    </g>
    <g clip-path="url(#p05fcdaf93d)">
     <use xlink:href="#C1_0_2234138944" x="177.05542" y="237.345632" style="fill: #ff7f0e"/>
    </g>
    <g clip-path="url(#p05fcdaf93d)">
     <use xlink:href="#C1_0_2234138944" x="204.433136" y="235.687737" style="fill: #ff7f0e"/>
    </g>
    <g clip-path="url(#p05fcdaf93d)">
     <use xlink:href="#C1_0_2234138944" x="192.729997" y="243.562737" style="fill: #ff7f0e"/>
    </g>
    <g clip-path="url(#p05fcdaf93d)">
     <use xlink:href="#C1_0_2234138944" x="210.536284" y="240.246947" style="fill: #ff7f0e"/>
    </g>
    <g clip-path="url(#p05fcdaf93d)">
     <use xlink:href="#C1_0_2234138944" x="171.716646" y="243.562737" style="fill: #ff7f0e"/>
    </g>
    <g clip-path="url(#p05fcdaf93d)">
     <use xlink:href="#C1_0_2234138944" x="191.135115" y="239.832474" style="fill: #ff7f0e"/>
    </g>
    <g clip-path="url(#p05fcdaf93d)">
     <use xlink:href="#C1_0_2234138944" x="195.389308" y="236.516684" style="fill: #ff7f0e"/>
    </g>
    <g clip-path="url(#p05fcdaf93d)">
     <use xlink:href="#C1_0_2234138944" x="200.178706" y="247.293" style="fill: #ff7f0e"/>
    </g>
    <g clip-path="url(#p05fcdaf93d)">
     <use xlink:href="#C1_0_2234138944" x="186.975992" y="243.148263" style="fill: #ff7f0e"/>
    </g>
    <g clip-path="url(#p05fcdaf93d)">
     <use xlink:href="#C1_0_2234138944" x="175.951851" y="244.391684" style="fill: #ff7f0e"/>
    </g>
    <g clip-path="url(#p05fcdaf93d)">
     <use xlink:href="#C1_0_2234138944" x="189.240382" y="240.246947" style="fill: #ff7f0e"/>
    </g>
    <g clip-path="url(#p05fcdaf93d)">
     <use xlink:href="#C1_0_2234138944" x="187.732841" y="241.904842" style="fill: #ff7f0e"/>
    </g>
    <g clip-path="url(#p05fcdaf93d)">
     <use xlink:href="#C1_0_2234138944" x="199.374173" y="242.319316" style="fill: #ff7f0e"/>
    </g>
    <g clip-path="url(#p05fcdaf93d)">
     <use xlink:href="#C1_0_2234138944" x="192.068164" y="241.075895" style="fill: #ff7f0e"/>
    </g>
    <g clip-path="url(#p05fcdaf93d)">
     <use xlink:href="#C1_0_2234138944" x="183.462519" y="237.760105" style="fill: #ff7f0e"/>
    </g>
    <g clip-path="url(#p05fcdaf93d)">
     <use xlink:href="#C1_0_2234138944" x="216.15443" y="237.760105" style="fill: #ff7f0e"/>
    </g>
    <g clip-path="url(#p05fcdaf93d)">
     <use xlink:href="#C1_0_2234138944" x="201.81723" y="241.904842" style="fill: #ff7f0e"/>
    </g>
    <g clip-path="url(#p05fcdaf93d)">
     <use xlink:href="#C1_0_2234138944" x="217.874604" y="238.589053" style="fill: #ff7f0e"/>
    </g>
    <g clip-path="url(#p05fcdaf93d)">
     <use xlink:href="#C1_0_2234138944" x="171.701738" y="242.733789" style="fill: #ff7f0e"/>
    </g>
    <g clip-path="url(#p05fcdaf93d)">
     <use xlink:href="#C1_0_2234138944" x="178.501093" y="235.273263" style="fill: #ff7f0e"/>
    </g>
    <g clip-path="url(#p05fcdaf93d)">
     <use xlink:href="#C1_0_2234138944" x="184.52638" y="242.733789" style="fill: #ff7f0e"/>
    </g>
    <g clip-path="url(#p05fcdaf93d)">
     <use xlink:href="#C1_0_2234138944" x="168.638" y="236.931158" style="fill: #ff7f0e"/>
    </g>
    <g clip-path="url(#p05fcdaf93d)">
     <use xlink:href="#C1_0_2234138944" x="174.338014" y="243.977211" style="fill: #ff7f0e"/>
    </g>
    <g clip-path="url(#p05fcdaf93d)">
     <use xlink:href="#C1_0_2234138944" x="181.346168" y="239.418" style="fill: #ff7f0e"/>
    </g>
   </g>
   <g id="PathCollection_3">
    <defs>
     <path id="C2_0_da88795264" d="M 0 1.5 
C 0.397805 1.5 0.77937 1.341951 1.06066 1.06066 
C 1.341951 0.77937 1.5 0.397805 1.5 -0 
C 1.5 -0.397805 1.341951 -0.77937 1.06066 -1.06066 
C 0.77937 -1.341951 0.397805 -1.5 0 -1.5 
C -0.397805 -1.5 -0.77937 -1.341951 -1.06066 -1.06066 
C -1.341951 -0.77937 -1.5 -0.397805 -1.5 0 
C -1.5 0.397805 -1.341951 0.77937 -1.06066 1.06066 
C -0.77937 1.341951 -0.397805 1.5 0 1.5 
z
"/>
    </defs>
    <g clip-path="url(#p05fcdaf93d)">
     <use xlink:href="#C2_0_da88795264" x="262.380231" y="221.595632" style="fill: #2ca02c"/>
    </g>
    <g clip-path="url(#p05fcdaf93d)">
     <use xlink:href="#C2_0_da88795264" x="265.414376" y="221.181158" style="fill: #2ca02c"/>
    </g>
    <g clip-path="url(#p05fcdaf93d)">
     <use xlink:href="#C2_0_da88795264" x="258.911995" y="216.207474" style="fill: #2ca02c"/>
    </g>
    <g clip-path="url(#p05fcdaf93d)">
     <use xlink:href="#C2_0_da88795264" x="300.290034" y="217.450895" style="fill: #2ca02c"/>
    </g>
    <g clip-path="url(#p05fcdaf93d)">
     <use xlink:href="#C2_0_da88795264" x="280.583356" y="216.207474" style="fill: #2ca02c"/>
    </g>
    <g clip-path="url(#p05fcdaf93d)">
     <use xlink:href="#C2_0_da88795264" x="290.747141" y="220.766684" style="fill: #2ca02c"/>
    </g>
    <g clip-path="url(#p05fcdaf93d)">
     <use xlink:href="#C2_0_da88795264" x="271.601958" y="217.450895" style="fill: #2ca02c"/>
    </g>
    <g clip-path="url(#p05fcdaf93d)">
     <use xlink:href="#C2_0_da88795264" x="254.883167" y="221.595632" style="fill: #2ca02c"/>
    </g>
    <g clip-path="url(#p05fcdaf93d)">
     <use xlink:href="#C2_0_da88795264" x="273.822421" y="215.793" style="fill: #2ca02c"/>
    </g>
    <g clip-path="url(#p05fcdaf93d)">
     <use xlink:href="#C2_0_da88795264" x="297.871718" y="217.036421" style="fill: #2ca02c"/>
    </g>
    <g clip-path="url(#p05fcdaf93d)">
     <use xlink:href="#C2_0_da88795264" x="287.39877" y="221.595632" style="fill: #2ca02c"/>
    </g>
    <g clip-path="url(#p05fcdaf93d)">
     <use xlink:href="#C2_0_da88795264" x="288.321954" y="222.010105" style="fill: #2ca02c"/>
    </g>
    <g clip-path="url(#p05fcdaf93d)">
     <use xlink:href="#C2_0_da88795264" x="268.686835" y="217.450895" style="fill: #2ca02c"/>
    </g>
    <g clip-path="url(#p05fcdaf93d)">
     <use xlink:href="#C2_0_da88795264" x="288.638023" y="217.450895" style="fill: #2ca02c"/>
    </g>
    <g clip-path="url(#p05fcdaf93d)">
     <use xlink:href="#C2_0_da88795264" x="293.933474" y="219.523263" style="fill: #2ca02c"/>
    </g>
    <g clip-path="url(#p05fcdaf93d)">
     <use xlink:href="#C2_0_da88795264" x="306.37544" y="221.595632" style="fill: #2ca02c"/>
    </g>
    <g clip-path="url(#p05fcdaf93d)">
     <use xlink:href="#C2_0_da88795264" x="270.245349" y="218.694316" style="fill: #2ca02c"/>
    </g>
    <g clip-path="url(#p05fcdaf93d)">
     <use xlink:href="#C2_0_da88795264" x="302.000522" y="217.036421" style="fill: #2ca02c"/>
    </g>
    <g clip-path="url(#p05fcdaf93d)">
     <use xlink:href="#C2_0_da88795264" x="301.704938" y="219.108789" style="fill: #2ca02c"/>
    </g>
    <g clip-path="url(#p05fcdaf93d)">
     <use xlink:href="#C2_0_da88795264" x="297.54028" y="218.279842" style="fill: #2ca02c"/>
    </g>
    <g clip-path="url(#p05fcdaf93d)">
     <use xlink:href="#C2_0_da88795264" x="260.676726" y="217.036421" style="fill: #2ca02c"/>
    </g>
    <g clip-path="url(#p05fcdaf93d)">
     <use xlink:href="#C2_0_da88795264" x="266.156682" y="214.964053" style="fill: #2ca02c"/>
    </g>
    <g clip-path="url(#p05fcdaf93d)">
     <use xlink:href="#C2_0_da88795264" x="270.880583" y="219.937737" style="fill: #2ca02c"/>
    </g>
    <g clip-path="url(#p05fcdaf93d)">
     <use xlink:href="#C2_0_da88795264" x="296.732324" y="215.378526" style="fill: #2ca02c"/>
    </g>
    <g clip-path="url(#p05fcdaf93d)">
     <use xlink:href="#C2_0_da88795264" x="265.157303" y="221.595632" style="fill: #2ca02c"/>
    </g>
    <g clip-path="url(#p05fcdaf93d)">
     <use xlink:href="#C2_0_da88795264" x="298.796213" y="217.450895" style="fill: #2ca02c"/>
    </g>
    <g clip-path="url(#p05fcdaf93d)">
     <use xlink:href="#C2_0_da88795264" x="282.349739" y="219.108789" style="fill: #2ca02c"/>
    </g>
   </g>
   <g id="PathCollection_4">
    <defs>
     <path id="C3_0_8d7500425b" d="M 0 1.5 
C 0.397805 1.5 0.77937 1.341951 1.06066 1.06066 
C 1.341951 0.77937 1.5 0.397805 1.5 -0 
C 1.5 -0.397805 1.341951 -0.77937 1.06066 -1.06066 
C 0.77937 -1.341951 0.397805 -1.5 0 -1.5 
C -0.397805 -1.5 -0.77937 -1.341951 -1.06066 -1.06066 
C -1.341951 -0.77937 -1.5 -0.397805 -1.5 0 
C -1.5 0.397805 -1.341951 0.77937 -1.06066 1.06066 
C -0.77937 1.341951 -0.397805 1.5 0 1.5 
z
"/>
    </defs>
    <g clip-path="url(#p05fcdaf93d)">
     <use xlink:href="#C3_0_8d7500425b" x="358.894963" y="286.668" style="fill: #d62728"/>
    </g>
    <g clip-path="url(#p05fcdaf93d)">
     <use xlink:href="#C3_0_8d7500425b" x="396.555884" y="288.740368" style="fill: #d62728"/>
    </g>
    <g clip-path="url(#p05fcdaf93d)">
     <use xlink:href="#C3_0_8d7500425b" x="382.903897" y="287.911421" style="fill: #d62728"/>
    </g>
    <g clip-path="url(#p05fcdaf93d)">
     <use xlink:href="#C3_0_8d7500425b" x="347.961165" y="287.496947" style="fill: #d62728"/>
    </g>
    <g clip-path="url(#p05fcdaf93d)">
     <use xlink:href="#C3_0_8d7500425b" x="372.549704" y="288.325895" style="fill: #d62728"/>
    </g>
    <g clip-path="url(#p05fcdaf93d)">
     <use xlink:href="#C3_0_8d7500425b" x="349.185517" y="288.740368" style="fill: #d62728"/>
    </g>
    <g clip-path="url(#p05fcdaf93d)">
     <use xlink:href="#C3_0_8d7500425b" x="361.393981" y="285.424579" style="fill: #d62728"/>
    </g>
    <g clip-path="url(#p05fcdaf93d)">
     <use xlink:href="#C3_0_8d7500425b" x="392.730189" y="285.424579" style="fill: #d62728"/>
    </g>
    <g clip-path="url(#p05fcdaf93d)">
     <use xlink:href="#C3_0_8d7500425b" x="362.22453" y="286.253526" style="fill: #d62728"/>
    </g>
    <g clip-path="url(#p05fcdaf93d)">
     <use xlink:href="#C3_0_8d7500425b" x="352.627373" y="284.181158" style="fill: #d62728"/>
    </g>
    <g clip-path="url(#p05fcdaf93d)">
     <use xlink:href="#C3_0_8d7500425b" x="353.246572" y="288.740368" style="fill: #d62728"/>
    </g>
    <g clip-path="url(#p05fcdaf93d)">
     <use xlink:href="#C3_0_8d7500425b" x="387.226444" y="286.253526" style="fill: #d62728"/>
    </g>
    <g clip-path="url(#p05fcdaf93d)">
     <use xlink:href="#C3_0_8d7500425b" x="383.241584" y="286.668" style="fill: #d62728"/>
    </g>
    <g clip-path="url(#p05fcdaf93d)">
     <use xlink:href="#C3_0_8d7500425b" x="345.623291" y="285.839053" style="fill: #d62728"/>
    </g>
    <g clip-path="url(#p05fcdaf93d)">
     <use xlink:href="#C3_0_8d7500425b" x="380.640269" y="285.424579" style="fill: #d62728"/>
    </g>
    <g clip-path="url(#p05fcdaf93d)">
     <use xlink:href="#C3_0_8d7500425b" x="361.697618" y="283.766684" style="fill: #d62728"/>
    </g>
    <g clip-path="url(#p05fcdaf93d)">
     <use xlink:href="#C3_0_8d7500425b" x="369.369432" y="285.424579" style="fill: #d62728"/>
    </g>
    <g clip-path="url(#p05fcdaf93d)">
     <use xlink:href="#C3_0_8d7500425b" x="386.538168" y="288.740368" style="fill: #d62728"/>
    </g>
    <g clip-path="url(#p05fcdaf93d)">
     <use xlink:href="#C3_0_8d7500425b" x="396.318472" y="289.154842" style="fill: #d62728"/>
    </g>
    <g clip-path="url(#p05fcdaf93d)">
     <use xlink:href="#C3_0_8d7500425b" x="381.264561" y="287.496947" style="fill: #d62728"/>
    </g>
    <g clip-path="url(#p05fcdaf93d)">
     <use xlink:href="#C3_0_8d7500425b" x="371.455109" y="285.424579" style="fill: #d62728"/>
    </g>
    <g clip-path="url(#p05fcdaf93d)">
     <use xlink:href="#C3_0_8d7500425b" x="393.075162" y="287.911421" style="fill: #d62728"/>
    </g>
    <g clip-path="url(#p05fcdaf93d)">
     <use xlink:href="#C3_0_8d7500425b" x="386.951942" y="282.523263" style="fill: #d62728"/>
    </g>
    <g clip-path="url(#p05fcdaf93d)">
     <use xlink:href="#C3_0_8d7500425b" x="389.426591" y="287.911421" style="fill: #d62728"/>
    </g>
    <g clip-path="url(#p05fcdaf93d)">
     <use xlink:href="#C3_0_8d7500425b" x="368.14422" y="285.424579" style="fill: #d62728"/>
    </g>
    <g clip-path="url(#p05fcdaf93d)">
     <use xlink:href="#C3_0_8d7500425b" x="389.016131" y="286.668" style="fill: #d62728"/>
    </g>
    <g clip-path="url(#p05fcdaf93d)">
     <use xlink:href="#C3_0_8d7500425b" x="380.352203" y="285.839053" style="fill: #d62728"/>
    </g>
    <g clip-path="url(#p05fcdaf93d)">
     <use xlink:href="#C3_0_8d7500425b" x="374.656635" y="286.253526" style="fill: #d62728"/>
    </g>
   </g>
  </g>
 </g>
 <defs>
  <clipPath id="p05fcdaf93d">
   <rect x="57.6" y="41.472" width="357.12" height="266.112"/>
  </clipPath>
 </defs>
</svg>
